<?xml version="1.0" encoding="utf-8"?>
<!-- Generator: Adobe Illustrator 16.0.0, SVG Export Plug-In . SVG Version: 6.00 Build 0)  -->
<!DOCTYPE svg PUBLIC "-//W3C//DTD SVG 1.1//EN" "http://www.w3.org/Graphics/SVG/1.1/DTD/svg11.dtd">
<svg version="1.1" id="Layer_1" xmlns="http://www.w3.org/2000/svg" xmlns:xlink="http://www.w3.org/1999/xlink" x="0px" y="0px"
	 width="50" height="50" viewBox="0 0 1000 1000" enable-background="new 0 0 1000 1000" xml:space="preserve">
<g>
	<path fill="#303030" d="M210.279,920.181c-4.57,2.287-14.85,4.734-28.232,4.734c-38.019,0-57.603-23.668-57.603-54.999
		c0-37.528,26.764-58.415,60.05-58.415c12.895,0,22.682,2.615,27.088,4.901l-5.058,19.737c-5.058-2.113-12.075-4.079-20.887-4.079
		c-19.744,0-35.085,11.914-35.085,36.391c0,22.03,13.054,35.896,35.249,35.896c7.505,0,15.83-1.632,20.723-3.582L210.279,920.181z"
		/>
	<path fill="#303030" d="M225.281,807.423h24.802v45.523h0.328c2.61-3.422,5.874-6.029,9.788-8.156
		c3.59-1.959,8.324-3.103,12.894-3.103c15.826,0,27.904,10.939,27.904,34.929v46.667h-24.804v-43.9
		c0-10.443-3.591-17.623-12.891-17.623c-6.529,0-10.608,4.244-12.403,8.651c-0.651,1.631-0.815,3.751-0.815,5.55v47.322h-24.802
		V807.423z"/>
	<path fill="#303030" d="M339.988,891.299c0.815,10.282,10.931,15.177,22.518,15.177c8.485,0,15.338-1.145,22.027-3.263
		l3.266,16.809c-8.161,3.262-18.116,4.894-28.883,4.894c-27.088,0-42.59-15.673-42.59-40.638c0-20.232,12.563-42.59,40.306-42.59
		c25.781,0,35.573,20.072,35.573,39.822c0,4.239-0.491,7.997-0.815,9.789H339.988z M369.195,874.329
		c0-6.045-2.611-16.153-14.034-16.153c-10.443,0-14.686,9.46-15.337,16.153H369.195z"/>
	<path fill="#303030" d="M431.848,877.098h0.328c1.795-3.264,3.75-6.526,5.709-9.629l16.157-23.982h29.859l-28.555,32.314
		l32.637,47.482h-30.515l-19.255-32.802l-6.365,7.837v24.965h-24.801v-115.86h24.801V877.098z"/>
	<path fill="#303030" d="M577.064,920.181c-4.565,2.287-14.842,4.734-28.227,4.734c-38.02,0-57.604-23.668-57.604-54.999
		c0-37.528,26.769-58.415,60.05-58.415c12.891,0,22.679,2.615,27.092,4.901l-5.062,19.737c-5.061-2.113-12.074-4.079-20.887-4.079
		c-19.743,0-35.08,11.914-35.08,36.391c0,22.03,13.051,35.896,35.247,35.896c7.502,0,15.826-1.632,20.72-3.582L577.064,920.181z"/>
	<path fill="#303030" d="M592.067,807.423h24.806v45.523h0.327c2.615-3.422,5.877-6.029,9.788-8.156
		c3.591-1.959,8.324-3.103,12.898-3.103c15.817,0,27.899,10.939,27.899,34.929v46.667h-24.805v-43.9
		c0-10.443-3.591-17.623-12.891-17.623c-6.533,0-10.611,4.244-12.402,8.651c-0.655,1.631-0.815,3.751-0.815,5.55v47.322h-24.806
		V807.423z"/>
	<path fill="#303030" d="M733.047,923.283l-1.471-7.996h-0.481c-5.229,6.364-13.386,9.788-22.854,9.788
		c-16.152,0-25.78-11.754-25.78-24.477c0-20.721,18.6-30.683,46.835-30.516v-1.144c0-4.239-2.287-10.282-14.529-10.282
		c-8.157,0-16.801,2.781-22.022,6.043l-4.574-15.991c5.55-3.103,16.488-7.021,31.01-7.021c26.598,0,35.081,15.673,35.081,34.434
		v27.74c0,7.668,0.327,15.009,1.144,19.422H733.047z M730.111,885.588c-13.058-0.16-23.174,2.936-23.174,12.563
		c0,6.366,4.246,9.461,9.795,9.461c6.198,0,11.26-4.078,12.891-9.133c0.321-1.311,0.488-2.775,0.488-4.246V885.588z"/>
	<path fill="#303030" d="M800.273,820.642v22.845h17.785v18.273h-17.785v28.884c0,9.627,2.286,14.032,9.787,14.032
		c3.103,0,5.55-0.328,7.342-0.648l0.168,18.761c-3.264,1.311-9.142,2.127-16.154,2.127c-7.995,0-14.688-2.782-18.606-6.861
		c-4.567-4.732-6.854-12.396-6.854-23.654v-32.64h-10.604v-18.273h10.604V826.19L800.273,820.642z"/>
</g>
<path fill="#FFFFFF" d="M294.788,440.178l-62.471-64.022c0,0,2.985-13.113,10.815-5.936c7.828,7.177,15.905,7.115,9.074,0
	c-6.839-7.115-17.522-22.657-9.074-19.547c8.447,3.109,15.614,12.432,20.42,16.16c4.807,3.729-17.238-27.543,0-16.567
	c17.238,10.974,32.772,24.025,34.637,25.267"/>
<path fill="#303030" d="M855.075,165.954c-4.843,2.331-14.551,6.98-14.551,6.98c-3.401-2.068-3.91-5.812-4.274-9.46
	c-8.267,3.252-16.14,7.195-24.069,11.059l-23.771,11.696l-23.189,12.708l-11.601,6.368l-11.347,6.744
	c-37.637,23.032-73.416,47.439-109.48,69.991c36.027-24.128,71.967-48.215,109.48-69.991l11.215-7.039l11.493-6.718
	c7.654-4.497,15.33-9.005,23.014-13.52c7.887-4.206,15.796-8.416,23.713-12.632c7.894-4.238,15.824-8.445,24.12-12.056
	c-0.692-4.115-2.536-7.225-10.846-5.929c-12.241,0.528-44.096,23.363-63.425,33.729c-55.392,25.876-107.842,66.193-157.423,100.487
	c-36.107,25.119-67.889,55.439-98.491,86.766c-3.641,3.886-7.355,7.746-11.157,11.573l-1.42,1.434l-0.495,0.55l-0.793,0.896
	l-1.653,1.766c-1.494,1.532-1.406,1.449-1.719,1.722c-0.27,0.229-0.532,0.418-0.779,0.568c-0.423-0.543-0.757-1.198-1.02-1.643
	l-0.204-0.324l-0.102-0.149l-0.051-0.065c-0.022-0.029,0.095,0.081-0.488-0.513c-3.336-3.379-6.642-6.718-9.891-10.021
	c-6.568-6.551-13.064-12.817-19.51-18.666c-6.468-5.79-12.956-10.99-19.373-15.698c-37.477-27.533-10.997,13.494-15.599,10.538
	c-32.277-20.683-16.022,5.276,0.029,28.53c-1.188,1.201-3.555,3.619-4.734,4.825c-28.263-32.201-24.703-5.164-34.381-2.797
	c7.596,7.389,14.899,15.079,21.76,23.222c6.649,8.258,12.847,16.967,18.418,26.235c5.243,5.316,15.73,15.964,20.959,21.273
	c14.893,15.071,29.706,30.063,44.373,44.897c9.556-9.974,19.066-19.918,28.549-29.834l7.071-7.352l6.314-6.299l12.584-12.556
	c5.447-5.328,10.895-10.64,16.328-15.945c4.865-4.789,9.89-9.41,14.828-14.1c19.794-18.735,39.974-36.782,60.482-54.333
	c41.104-34.946,83.846-67.642,129.646-96.325c-16.502,9.544-32.059,20.315-47.738,30.562c-15.309,10.87-30.639,21.465-45.342,33.02
	c-29.685,22.678-58.306,46.973-86.417,73.639c-0.306-1.194,0.007-3.328-2.688-2.126c26.363-29.677,56.434-53.538,87.349-75.762
	c15.315-11.347,31.243-21.732,46.756-32.915c15.861-10.622,31.301-22.128,47.039-33.672c0.924,1.398,2.752,4.181,3.699,5.601
	c5.812-3.576,11.631-7.163,17.479-10.761c5.957-3.306,11.943-6.624,17.945-9.951c6.016-3.267,12.002-6.683,18.111-9.795
	c6.162-2.942,12.345-5.899,18.564-8.874c4.994-2.732,9.277-5.98,12.992-9.486c3.778-3.306,7.028-6.798,9.846-10.371
	c-39.027,12.767-78.158,32.63-115.482,56.274c-37.375,23.654-73.41,50.443-108.228,77.109c28.569-23.418,60.919-50.929,93.24-68.997
	c44.92-27.223,84.509-53.157,128.344-69.124c2.389-0.757,4.813-1.534,7.238-2.312c2.12-3.157,3.955-6.183,5.616-8.885
	C877.645,177.618,878.052,164.315,855.075,165.954z M630.586,334.99c-20.042,10.283,44.956-38.066,44.956-38.066
	c74.474-56.321,160.365-96.11,160.365-96.11C769.066,233.145,630.586,334.99,630.586,334.99z"/>
<radialGradient id="SVGID_1_" cx="467.8062" cy="394.0498" r="306.7165" gradientUnits="userSpaceOnUse">
	<stop  offset="0.0054" style="stop-color:#47ADE2"/>
	<stop  offset="0.5215" style="stop-color:#4FC9F1"/>
	<stop  offset="1" style="stop-color:#47ADE2"/>
</radialGradient>
<path fill="url(#SVGID_1_)" d="M642.377,482.145c-33.421,50.566-90.742,84.01-155.756,84.01
	c-102.897,0-186.605-83.711-186.605-186.602s83.708-186.601,186.605-186.601c50.994,0,97.254,20.577,130.973,53.848l105.825-64.59
	C666.803,114.382,581.675,71.13,486.621,71.13c-170.058,0-308.423,138.357-308.423,308.423c0,93.287,41.693,176.973,107.354,233.574
	c1.763,70.322-52.107,100.676-52.107,100.676c87.53,14.318,149.506-23.763,168.704-37.688c26.866,7.669,55.173,11.856,84.472,11.856
	c116.669,0,218.409-65.13,270.793-160.94L642.377,482.145z"/>
</svg>
